<?xml version="1.0" encoding="iso-8859-1"?>
<!-- Generator: Adobe Illustrator 19.0.0, SVG Export Plug-In . SVG Version: 6.00 Build 0)  -->
<svg version="1.1" id="Layer_1" xmlns="http://www.w3.org/2000/svg" xmlns:xlink="http://www.w3.org/1999/xlink" x="0px" y="0px"
	 viewBox="0 0 512.001 512.001" style="enable-background:new 0 0 512.001 512.001;" xml:space="preserve">
<path style="fill:#F15A58;" d="M184.263,437.672C80.938,437.672,0,388.516,0,325.762V215.4c0-62.753,80.938-111.91,184.263-111.91
	c16.326,0,32.516,1.259,48.122,3.744c6.74,1.073,12.39,5.675,14.803,12.06c2.413,6.385,1.22,13.573-3.125,18.837l-48.093,58.249
	h153.538c10.505,0,19.022,8.517,19.022,19.022v110.362C368.529,388.516,287.59,437.672,184.263,437.672z"/>
<path style="fill:#C2B175;" d="M349.506,306.575c-5.277,0-10.361-2.196-13.985-6.13L266.06,225.08
	c-3.238-3.514-5.034-8.115-5.034-12.892v-49.732c0-5.808,2.653-11.296,7.204-14.906l87.146-69.093
	c3.307-2.621,7.393-4.069,11.614-4.115c90.044-0.99,138.628,56.422,140.637,58.844c2.828,3.413,4.375,7.705,4.375,12.137v124.152
	c0,9.587-7.133,17.675-16.644,18.874l-143.471,18.076C351.091,306.525,350.296,306.575,349.506,306.575z"/>
<circle style="fill:#CD855C;" cx="372.006" cy="236.799" r="17.047"/>
<g>
	<path style="fill:#C74A48;" d="M280.04,181.478c-7.757,0-14.808-4.735-17.69-12.049c-3.07-7.793-0.682-16.676,5.88-21.879
		l87.146-69.093c3.306-2.621,7.392-4.069,11.612-4.115c90.059-0.951,138.629,56.423,140.638,58.846
		c4.527,5.464,5.636,12.993,2.877,19.53c-2.758,6.537-8.926,10.996-16,11.565l-212.93,17.132
		C281.06,181.457,280.547,181.478,280.04,181.478z"/>
	<path style="fill:#C74A48;" d="M349.507,196.378H256v232.791c66.704-16.675,112.529-56.191,112.529-103.407V215.4
		C368.529,204.895,360.012,196.378,349.507,196.378z"/>
</g>
<polygon style="fill:#ECD58C;" points="248.323,127.904 248.323,196.378 191.989,196.378 "/>
<path style="fill:#9A4149;" d="M184.263,313.623c-99.765,0-181.003-44.565-184.157-100.222C0.038,214.058,0,214.724,0,215.4v110.362
	c0,62.753,80.938,111.91,184.263,111.91c103.327,0,184.267-49.157,184.267-111.91V215.4c0-0.676-0.038-1.343-0.107-1.999
	C365.268,269.06,284.029,313.623,184.263,313.623z"/>
<path style="fill:#80343B;" d="M256,305.482v123.687c66.704-16.675,112.529-56.191,112.529-103.407V215.4
	c0-0.676-0.038-1.343-0.107-1.999C366.072,254.863,320.397,290.169,256,305.482z"/>
<circle style="fill:#CD855C;" cx="438.342" cy="206.642" r="17.047"/>
<g>
</g>
<g>
</g>
<g>
</g>
<g>
</g>
<g>
</g>
<g>
</g>
<g>
</g>
<g>
</g>
<g>
</g>
<g>
</g>
<g>
</g>
<g>
</g>
<g>
</g>
<g>
</g>
<g>
</g>
</svg>
