<?xml version="1.0" encoding="iso-8859-1"?>
<!-- Generator: Adobe Illustrator 19.0.0, SVG Export Plug-In . SVG Version: 6.00 Build 0)  -->
<svg version="1.1" id="Capa_1" xmlns="http://www.w3.org/2000/svg" xmlns:xlink="http://www.w3.org/1999/xlink" x="0px" y="0px"
	 viewBox="0 0 512 512" style="enable-background:new 0 0 512 512;" xml:space="preserve">
<g>
	<path style="fill:#ED634C;" d="M256,57.379C114.582,57.379,0,88.982,0,128v247.172c0.014,4.87,3.958,8.814,8.828,8.828H256v61.705
		c0.017,4.917,3.999,8.899,8.916,8.916C402.185,453.297,512,422.223,512,384V128C512,88.982,397.418,57.379,256,57.379z"/>
	<path style="fill:#943F51;" d="M256,136.828V384H8.828c-4.87-0.014-8.814-3.958-8.828-8.828V128h247.172
		C252.042,128.014,255.986,131.958,256,136.828z"/>
	<path style="fill:#F6DB6D;" d="M35.31,339.862V172.138c0-4.875,3.952-8.828,8.828-8.828H256V348.69H44.138
		C39.263,348.69,35.31,344.737,35.31,339.862z"/>
	<path style="fill:#CD4F38;" d="M512,128c0,39.017-114.582,70.621-256,70.621v-61.793c-0.014-4.87-3.958-8.814-8.828-8.828H0
		c0-39.018,114.582-70.621,256-70.621S512,88.982,512,128z"/>
	<g>
		<circle style="fill:#F6AB27;" cx="88.276" cy="216.276" r="17.655"/>
		<circle style="fill:#F6AB27;" cx="203.034" cy="251.586" r="17.655"/>
		<circle style="fill:#F6AB27;" cx="128" cy="291.31" r="22.069"/>
		<path style="fill:#F6AB27;" d="M150.069,216.276c-2.348,0.023-4.607-0.899-6.268-2.56c-0.776-0.881-1.431-1.86-1.948-2.914
			c-0.422-1.067-0.63-2.207-0.612-3.354c0.015-0.592,0.072-1.183,0.172-1.767c0.1-0.552,0.28-1.086,0.535-1.586
			c0.19-0.565,0.457-1.102,0.793-1.595c0.611-0.956,1.423-1.768,2.379-2.379c0.493-0.336,1.03-0.603,1.595-0.793
			c0.5-0.255,1.034-0.435,1.586-0.535c2.909-0.59,5.92,0.305,8.035,2.388l1.06,1.319c0.332,0.495,0.599,1.031,0.793,1.595
			c0.256,0.499,0.433,1.034,0.526,1.586c0.107,0.583,0.167,1.175,0.181,1.768c0.004,2.344-0.916,4.596-2.56,6.268
			c-0.859,0.778-1.845,1.405-2.914,1.854C152.362,216.022,151.222,216.262,150.069,216.276z"/>
		<path style="fill:#F6AB27;" d="M220.69,207.448c-2.348,0.023-4.607-0.899-6.268-2.56c-0.778-0.859-1.405-1.845-1.854-2.914
			c-0.452-1.061-0.692-2.2-0.706-3.354c0.031-2.338,0.945-4.577,2.56-6.268c0.844-0.799,1.833-1.428,2.914-1.854
			c3.287-1.378,7.081-0.647,9.621,1.854c1.612,1.693,2.526,3.931,2.561,6.268c-0.014,1.153-0.254,2.293-0.707,3.353
			c-0.804,2.217-2.55,3.963-4.767,4.767C222.996,207.234,221.847,207.476,220.69,207.448L220.69,207.448z"/>
		<path style="fill:#F6AB27;" d="M185.379,313.379c-1.153-0.014-2.293-0.254-3.353-0.707c-1.07-0.447-2.056-1.074-2.914-1.854
			c-0.778-0.859-1.405-1.845-1.854-2.914c-0.452-1.061-0.692-2.2-0.707-3.353c0.015-0.564,0.072-1.126,0.172-1.681
			c0.086-0.583,0.267-1.148,0.535-1.672c0.19-0.565,0.457-1.102,0.793-1.595c0.611-0.956,1.423-1.768,2.379-2.379
			c0.493-0.336,1.03-0.603,1.595-0.793c0.5-0.255,1.034-0.435,1.586-0.534c1.721-0.36,3.511-0.173,5.121,0.534
			c1.069,0.449,2.054,1.075,2.914,1.854c0.379,0.418,0.733,0.859,1.06,1.319c0.332,0.495,0.599,1.031,0.793,1.595
			c0.269,0.524,0.447,1.089,0.526,1.672c0.107,0.554,0.168,1.116,0.181,1.681c-0.014,1.153-0.254,2.293-0.707,3.353
			c-0.804,2.217-2.55,3.963-4.767,4.767C187.672,313.125,186.533,313.365,185.379,313.379z"/>
		<path style="fill:#F6AB27;" d="M70.621,295.724c-2.348,0.023-4.607-0.899-6.268-2.56c-0.778-0.859-1.405-1.845-1.854-2.914
			c-0.943-2.136-0.943-4.571,0-6.707c0.426-1.081,1.055-2.07,1.854-2.914c3.539-3.267,8.995-3.267,12.534,0
			c0.799,0.844,1.428,1.833,1.854,2.914c0.943,2.136,0.943,4.571,0,6.707c-0.449,1.069-1.075,2.054-1.854,2.914
			C75.226,294.821,72.968,295.744,70.621,295.724z"/>
	</g>
</g>
<g>
</g>
<g>
</g>
<g>
</g>
<g>
</g>
<g>
</g>
<g>
</g>
<g>
</g>
<g>
</g>
<g>
</g>
<g>
</g>
<g>
</g>
<g>
</g>
<g>
</g>
<g>
</g>
<g>
</g>
</svg>
